<svg width="197" height="60" viewBox="0 0 197 60" fill="none" xmlns="http://www.w3.org/2000/svg">
<g filter="url(#filter0_i)">
<path d="M18 42.1481L39 54L60 42.1481V17.8519L39 6L18 17.8519V42.1481Z" stroke="url(#paint0_linear)" stroke-width="3"/>
</g>
<path d="M89.7282 41.4913C91.4862 41.4913 92.9556 40.9991 94.137 40.0148C95.3322 39.0163 95.979 37.7296 96.0774 36.1546H98.5032C98.433 37.5468 97.9968 38.8194 97.1952 39.9726C96.3936 41.1116 95.325 42.0046 93.9888 42.6515C92.667 43.2984 91.2468 43.6218 89.7282 43.6218C86.733 43.6218 84.3564 42.5812 82.5984 40.4999C80.8548 38.4186 79.983 35.6202 79.983 32.1046V31.3452C79.983 29.0952 80.3766 27.1054 81.1638 25.3757C81.9516 23.646 83.0766 22.3101 84.5388 21.3679C86.0154 20.4257 87.738 19.9546 89.7072 19.9546C92.2104 19.9546 94.2702 20.6999 95.8872 22.1906C97.5186 23.6812 98.3904 25.6429 98.5032 28.0757H96.0774C95.9646 26.2897 95.3178 24.8484 94.137 23.7514C92.9694 22.6546 91.4928 22.1062 89.7072 22.1062C87.429 22.1062 85.6572 22.9288 84.3912 24.5741C83.1396 26.2194 82.5138 28.5257 82.5138 31.4929V32.2312C82.5138 35.1421 83.1396 37.4132 84.3912 39.0444C85.6572 40.6757 87.4362 41.4913 89.7282 41.4913Z" fill="url(#paint1_linear)"/>
<path d="M117.973 43.1999C117.719 42.4827 117.558 41.421 117.487 40.0148C116.602 41.1679 115.469 42.0609 114.091 42.6936C112.727 43.3124 111.279 43.6218 109.746 43.6218C107.552 43.6218 105.773 43.0101 104.41 41.7866C103.06 40.5632 102.385 39.0163 102.385 37.146C102.385 34.9241 103.306 33.1663 105.148 31.8726C107.004 30.5788 109.585 29.9319 112.889 29.9319H117.466V27.3374C117.466 25.7062 116.96 24.4265 115.948 23.4984C114.949 22.5562 113.487 22.0851 111.56 22.0851C109.802 22.0851 108.347 22.5351 107.194 23.4351C106.04 24.3351 105.464 25.4179 105.464 26.6835L102.933 26.6624C102.933 24.8484 103.777 23.2804 105.464 21.9585C107.152 20.6226 109.226 19.9546 111.687 19.9546C114.232 19.9546 116.236 20.5944 117.698 21.8741C119.175 23.1398 119.935 24.9116 119.977 27.1897V37.9898C119.977 40.1976 120.209 41.8499 120.673 42.9468V43.1999H117.973ZM110.041 41.3859C111.729 41.3859 113.234 40.9781 114.556 40.1624C115.891 39.3468 116.862 38.2569 117.466 36.8929V31.8726H112.952C110.435 31.9007 108.466 32.3647 107.046 33.2648C105.626 34.1507 104.915 35.3741 104.915 36.9351C104.915 38.2148 105.387 39.2765 106.329 40.1202C107.285 40.964 108.523 41.3859 110.041 41.3859Z" fill="url(#paint2_linear)"/>
<path d="M140.395 37.3991C140.395 36.1476 139.889 35.1421 138.877 34.3827C137.878 33.6234 136.366 33.0327 134.341 32.6109C132.316 32.1749 130.741 31.6827 129.616 31.1343C128.506 30.5718 127.676 29.8898 127.127 29.0882C126.593 28.2866 126.326 27.3163 126.326 26.1772C126.326 24.3772 127.078 22.8936 128.583 21.7264C130.087 20.5452 132.014 19.9546 134.363 19.9546C136.908 19.9546 138.947 20.5874 140.48 21.8531C142.027 23.1046 142.8 24.7429 142.8 26.7679H140.269C140.269 25.4319 139.706 24.321 138.581 23.4351C137.47 22.5491 136.064 22.1062 134.363 22.1062C132.703 22.1062 131.367 22.4788 130.355 23.2241C129.356 23.9554 128.857 24.9116 128.857 26.0929C128.857 27.2319 129.272 28.1179 130.102 28.7507C130.945 29.3694 132.471 29.9389 134.679 30.4593C136.901 30.9796 138.56 31.5351 139.657 32.1257C140.768 32.7163 141.59 33.4265 142.125 34.2562C142.66 35.0859 142.927 36.0913 142.927 37.2726C142.927 39.1991 142.146 40.739 140.585 41.8921C139.038 43.0452 137.013 43.6218 134.51 43.6218C131.852 43.6218 129.694 42.9819 128.035 41.7023C126.389 40.4085 125.566 38.7773 125.566 36.8085H128.098C128.196 38.2851 128.815 39.4382 129.954 40.2679C131.107 41.0835 132.626 41.4913 134.51 41.4913C136.268 41.4913 137.688 41.1046 138.771 40.3312C139.854 39.5577 140.395 38.5804 140.395 37.3991Z" fill="url(#paint3_linear)"/>
<path d="M151.448 43.2001H148.917V10.8H151.448V43.2001Z" fill="url(#paint4_linear)"/>
<path d="M172.732 43.1999C172.479 42.4827 172.317 41.421 172.247 40.0148C171.361 41.1679 170.229 42.0609 168.851 42.6936C167.487 43.3124 166.038 43.6218 164.506 43.6218C162.312 43.6218 160.533 43.0101 159.169 41.7866C157.819 40.5632 157.144 39.0163 157.144 37.146C157.144 34.9241 158.065 33.1663 159.907 31.8726C161.763 30.5788 164.344 29.9319 167.648 29.9319H172.226V27.3374C172.226 25.7062 171.719 24.4265 170.707 23.4984C169.709 22.5562 168.246 22.0851 166.319 22.0851C164.562 22.0851 163.106 22.5351 161.953 23.4351C160.8 24.3351 160.223 25.4179 160.223 26.6835L157.692 26.6624C157.692 24.8484 158.536 23.2804 160.223 21.9585C161.911 20.6226 163.985 19.9546 166.446 19.9546C168.991 19.9546 170.995 20.5944 172.458 21.8741C173.935 23.1398 174.694 24.9116 174.736 27.1897V37.9898C174.736 40.1976 174.968 41.8499 175.432 42.9468V43.1999H172.732ZM164.801 41.3859C166.488 41.3859 167.993 40.9781 169.315 40.1624C170.651 39.3468 171.621 38.2569 172.226 36.8929V31.8726H167.712C165.194 31.9007 163.226 32.3647 161.806 33.2648C160.385 34.1507 159.675 35.3741 159.675 36.9351C159.675 38.2148 160.146 39.2765 161.088 40.1202C162.044 40.964 163.282 41.3859 164.801 41.3859Z" fill="url(#paint5_linear)"/>
<defs>
<filter id="filter0_i" x="16.5" y="4.27759" width="45" height="51.4448" filterUnits="userSpaceOnUse" color-interpolation-filters="sRGB">
<feFlood flood-opacity="0" result="BackgroundImageFix"/>
<feBlend mode="normal" in="SourceGraphic" in2="BackgroundImageFix" result="shape"/>
<feColorMatrix in="SourceAlpha" type="matrix" values="0 0 0 0 0 0 0 0 0 0 0 0 0 0 0 0 0 0 127 0" result="hardAlpha"/>
<feOffset/>
<feGaussianBlur stdDeviation="0.5"/>
<feComposite in2="hardAlpha" operator="arithmetic" k2="-1" k3="1"/>
<feColorMatrix type="matrix" values="0 0 0 0 0.690196 0 0 0 0 0.0980392 0 0 0 0 0.678431 0 0 0 1 0"/>
<feBlend mode="normal" in2="shape" result="effect1_innerShadow"/>
</filter>
<linearGradient id="paint0_linear" x1="18" y1="6" x2="59.4037" y2="54.5089" gradientUnits="userSpaceOnUse">
<stop stop-color="#B019AD"/>
<stop offset="1" stop-color="#ED00E7"/>
</linearGradient>
<linearGradient id="paint1_linear" x1="78" y1="2.99991" x2="178.2" y2="53.3999" gradientUnits="userSpaceOnUse">
<stop stop-color="#ED00E7"/>
<stop offset="1" stop-color="#FF9D9D"/>
</linearGradient>
<linearGradient id="paint2_linear" x1="78" y1="2.99991" x2="178.2" y2="53.3999" gradientUnits="userSpaceOnUse">
<stop stop-color="#ED00E7"/>
<stop offset="1" stop-color="#FF9D9D"/>
</linearGradient>
<linearGradient id="paint3_linear" x1="77.9999" y1="2.99991" x2="178.2" y2="53.4" gradientUnits="userSpaceOnUse">
<stop stop-color="#ED00E7"/>
<stop offset="1" stop-color="#FF9D9D"/>
</linearGradient>
<linearGradient id="paint4_linear" x1="77.9999" y1="3.00005" x2="178.2" y2="53.4001" gradientUnits="userSpaceOnUse">
<stop stop-color="#ED00E7"/>
<stop offset="1" stop-color="#FF9D9D"/>
</linearGradient>
<linearGradient id="paint5_linear" x1="78" y1="2.99991" x2="178.2" y2="53.3999" gradientUnits="userSpaceOnUse">
<stop stop-color="#ED00E7"/>
<stop offset="1" stop-color="#FF9D9D"/>
</linearGradient>
</defs>
</svg>
